<svg width="980" height="1584" viewBox="0 0 980 1584" fill="none" xmlns="http://www.w3.org/2000/svg">
<g clip-path="url(#clip0_2_2)">
<path d="M0 0H980V1584H0V0Z" fill="#FEFEFE"/>
<path d="M0 100C0 44.7715 44.7715 0 100 0H880C935.228 0 980.005 44.954 979.994 100.182C979.947 326.066 979.539 326.576 976 331L974.062 333.5C972 336 972 336 969.63 338.336C967.173 340.825 965.023 343.377 962.859 346.121C957.994 352.125 952.728 357.618 947.25 363.062C946.767 363.544 946.283 364.025 945.785 364.521C938.593 371.661 931.401 378.286 923 384C922.288 384.492 921.577 384.984 920.843 385.49C901.72 398.682 899.983 399.88 896.211 399.989C895.543 400.008 895 400.542 895 401.21C895 401.69 894.705 402.13 894.265 402.323C878.267 409.368 878.147 409.418 870.034 412.736C868.114 413.536 866.203 414.359 864.306 415.214C856.682 418.59 849.167 420.584 841 422.188C839.738 422.444 838.477 422.7 837.177 422.964C828.901 424.59 820.676 425.822 812.254 426.331C807.252 426.669 803.609 427.872 799 430C796.276 430.924 793.517 431.713 790.75 432.5C790.063 432.7 789.376 432.9 788.668 433.105C787.266 433.511 785.863 433.911 784.458 434.306C782.82 434.768 781.185 435.239 779.552 435.718C772.927 437.614 766.38 438.856 759.559 439.789C757.986 440.012 757.986 440.012 756.382 440.24C754.183 440.551 751.984 440.858 749.784 441.162C746.442 441.624 743.101 442.096 739.76 442.57C737.609 442.873 735.459 443.175 733.309 443.477C732.323 443.615 731.337 443.754 730.322 443.896C727.549 444.279 724.776 444.644 722 445C721.237 445.103 720.474 445.205 719.689 445.311C711.328 446.306 702.918 446.163 694.512 446.168C692.786 446.172 691.059 446.176 689.333 446.18C684.734 446.19 680.134 446.191 675.534 446.189C672.685 446.188 669.836 446.188 666.987 446.189C643.559 446.188 620.161 446.008 596.75 445.062C595.664 445.019 594.579 444.976 593.461 444.931C590.447 444.806 587.435 444.674 584.422 444.535C583.571 444.497 582.719 444.458 581.842 444.418C581.05 444.378 580.257 444.338 579.44 444.297C578.77 444.264 578.1 444.23 577.409 444.196C575.361 444.029 573.322 443.77 571.287 443.491C566.838 442.923 562.451 442.852 557.971 442.855C557.104 442.851 556.238 442.848 555.345 442.845C552.49 442.835 549.636 442.833 546.781 442.832C544.762 442.829 542.742 442.825 540.723 442.822C536.48 442.816 532.236 442.814 527.993 442.815C523.707 442.815 519.422 442.808 515.136 442.794C484.935 442.672 484.935 442.672 454.766 443.887C453.533 443.964 452.3 444.042 451.029 444.122C440.644 444.871 430.476 446.507 420.275 448.554C416.4 449.314 412.499 449.902 408.598 450.508C406.462 450.913 404.347 451.428 402.242 451.973C397.885 453.085 393.512 453.696 389.062 454.312C377.417 456.035 366.501 459.481 355.37 463.21C352.9 464.033 350.425 464.842 347.949 465.648C338.463 468.751 329.122 471.928 320 476C318.559 476.618 317.117 477.235 315.676 477.852C276.844 494.668 238.401 518.655 208.777 549.219C206.984 551.016 205.119 552.665 203.188 554.312C195.781 560.711 188.618 567.498 183.121 575.637C182.921 575.88 182.722 576.122 182.52 576.367C182.191 576.768 181.699 577 181.181 577C180.468 577 179.828 577.436 179.567 578.099L179.188 579.062C178.367 581.093 177.482 583.098 176.547 585.078C175.017 588.646 174.275 592.158 173.569 595.963C169.058 620.221 159.955 644.007 150.845 666.875C150.026 668.934 149.224 670.999 148.426 673.066C144.992 681.897 141.126 690.474 137 699C136.695 699.633 136.39 700.266 136.075 700.918C133.614 705.944 130.869 710.759 128 715.562C127.145 717.001 126.291 718.44 125.438 719.879C125.03 720.565 124.623 721.251 124.203 721.958C122.582 724.709 120.999 727.481 119.422 730.257C119.161 730.716 118.674 731 118.146 731C117.472 731 116.885 731.458 116.722 732.111L116.375 733.5C114.88 737.304 112.952 739.929 110.449 743.117C108.765 745.305 107.41 747.629 106 750C104.679 751.676 103.344 753.342 102 755C101.384 755.781 100.768 756.562 100.133 757.367C86.6976 774.148 71.352 791.234 54 804C52.6446 805.011 52.6446 805.011 51.2617 806.043C45.6197 810.202 39.8804 814.186 34 818C33.4032 818.396 32.8063 818.791 32.1914 819.199C27.6929 822.111 23.0192 824.694 18.3125 827.25C17.6704 827.604 17.0283 827.957 16.3667 828.322C13.4256 829.897 10.7603 831.103 7.62016 831.733C6.6356 831.931 5.79831 832.605 5.48076 833.558C5.18347 834.45 4.43109 835.114 3.50923 835.298L3.38811 835.322C1.63532 835.673 0 834.332 0 832.545V100Z" fill="#2C9A06"/>
<path d="M902.65 395.007L903.326 396.889C895.705 402.667 895.705 402.667 890.752 402.93C887.564 403.385 885.128 404.969 882.354 406.543C884.484 402.529 886.734 401.302 890.873 399.567C891.887 399.133 892.901 398.699 893.946 398.252C896.827 397.104 899.723 396.033 902.65 395.007Z" fill="#2C9A06"/>
<path d="M120.455 5.75391L123.368 5.74692C126.608 5.7416 129.848 5.75062 133.089 5.7595C135.428 5.75862 137.767 5.75687 140.106 5.75432C145.872 5.7503 151.637 5.75562 157.403 5.7648C164.308 5.77527 171.213 5.77411 178.119 5.77251C190.862 5.76988 203.606 5.77657 216.35 5.78854C228.969 5.80037 241.589 5.80808 254.209 5.81025C254.994 5.81039 255.778 5.81053 256.586 5.81067C260.569 5.81134 264.552 5.81195 268.536 5.81252C296.757 5.81672 324.978 5.8302 353.198 5.84913C380.617 5.86749 408.035 5.88166 435.453 5.89014C436.298 5.8904 437.143 5.89067 438.014 5.89094C446.499 5.89358 454.985 5.89613 463.47 5.89862C480.757 5.90369 498.043 5.90933 515.33 5.91532C516.124 5.91559 516.919 5.91587 517.738 5.91615C570.825 5.93456 623.913 5.96629 677 6C667.601 10.898 656.236 12.1854 645.875 13.875C630.175 16.4743 614.953 20.695 599.983 26.0835C595.304 27.7306 590.943 28.53 586 29V31L582.25 31.75C577.199 32.8582 572.381 34.4888 567.504 36.1953C565 37 565 37 563 37V39C556.593 41.7925 550.299 43.7928 543.469 45.2891C540.85 45.8277 540.85 45.8277 539 48C537.371 48.497 535.721 48.9247 534.062 49.3125C528.911 50.6392 524.297 52.5216 519.508 54.8164C514.727 57.0727 511.351 58.2489 506 58L505 61C502.539 62.1804 500.174 63.1822 497.625 64.125C496.939 64.3893 496.253 64.6535 495.547 64.9258C492.716 66.0108 489.876 67.0412 487 68V70C485.794 70.6303 484.585 71.254 483.375 71.875C482.702 72.2231 482.029 72.5711 481.336 72.9297C479 74 479 74 476.102 74.9375C470.394 76.8926 465.251 80.0619 460 83C459.384 83.3443 458.768 83.6887 458.133 84.0435C451.953 87.5103 445.897 91.0638 440 95C436.82 96.9498 433.604 98.8381 430.391 100.732C427.712 102.324 425.147 103.888 422.664 105.777C421 107 421 107 419 107L418 110C415.664 111.543 415.664 111.543 412.625 113.188C402.974 118.639 394.382 125.38 385.77 132.319C382.967 134.557 380.311 136.585 377 138V140C375.383 141.41 375.383 141.41 373.125 143.062C368.715 146.39 364.654 149.975 360.582 153.703C358.06 155.946 355.463 158.036 352.813 160.125C347.873 164.115 343.364 168.449 338.875 172.938C338.211 173.601 337.547 174.264 336.863 174.948C333.527 178.175 333.527 178.175 331 182H329C328.736 182.593 328.471 183.186 328.199 183.797C326.956 186.08 325.696 187.474 323.813 189.25C303.877 208.696 287.852 232.591 273 256C272.258 257.143 272.258 257.143 271.5 258.309C268.665 262.712 266.336 267.253 264.113 271.996C263 274 263 274 261 275C260.17 276.852 260.17 276.852 259.5 279C258.781 281.188 258.781 281.188 258 283L256 284C255.093 286.113 255.093 286.113 254.375 288.562C254.115 289.389 253.854 290.215 253.586 291.066C253.393 291.704 253.199 292.343 253 293H251L250.25 294.938C249.198 297.516 248.116 300.073 247 302.625C246.67 303.38 246.34 304.136 246 304.914C245 307 245 307 243 310L242.062 313.375C241 317 241 317 239.582 319.359C234.69 327.524 232.208 337.286 229.262 346.281C227.69 350.914 225.929 355.458 224.113 360C222.891 363.295 221.962 366.62 221 370C220.198 372.43 219.368 374.85 218.538 377.27C214.072 390.318 210.439 403.411 208 417C207.756 418.325 207.756 418.325 207.508 419.676C206.318 426.437 205.464 433.208 204.785 440.037C204.461 443.061 204.059 445.83 203.062 448.71C201.8 452.619 201.115 456.482 200.449 460.527C200.162 462.213 199.876 463.899 199.589 465.584C199.368 466.897 199.368 466.897 199.143 468.236C197.062 480.585 194.959 492.909 192.187 505.125C190.675 511.791 189.402 518.381 188.531 525.168C187.782 530.57 186.863 535.938 185.937 541.312C185.763 542.347 185.588 543.381 185.408 544.447C185.241 545.41 185.074 546.372 184.902 547.363C184.753 548.233 184.603 549.102 184.449 549.997C184 552 184 552 183 553C182.575 554.985 182.151 556.97 181.734 558.957C180.996 562.017 180.104 564.993 179.175 568C176.98 575.117 175.443 581.955 174.488 589.359C170.917 615.985 160.745 642.024 150.845 666.875C150.026 668.934 149.224 670.999 148.426 673.066C144.992 681.897 141.126 690.474 137 699C136.695 699.633 136.39 700.266 136.075 700.918C133.614 705.944 130.869 710.759 128 715.562C127.145 717.001 126.291 718.44 125.438 719.879C125.03 720.565 124.623 721.251 124.203 721.958C122.438 724.954 120.717 727.975 119 731H117L116.375 733.5C114.88 737.304 112.952 739.929 110.449 743.117C108.765 745.305 107.41 747.629 106 750C104.679 751.676 103.344 753.342 102 755C101.384 755.781 100.768 756.562 100.133 757.367C86.6976 774.148 71.352 791.234 54 804C52.6445 805.011 52.6445 805.011 51.2617 806.043C45.6197 810.202 39.8804 814.186 34 818C33.4032 818.396 32.8063 818.791 32.1914 819.199C27.6929 822.111 23.0192 824.694 18.3125 827.25C17.6704 827.604 17.0283 827.957 16.3667 828.322C12.9333 830.161 9.87585 831.496 6 832L5 835L-2.83122e-06 836C-0.0514187 766.573 -0.0991175 697.147 -0.127032 627.72C-0.127446 626.693 -0.127861 625.665 -0.128287 624.607C-0.137266 602.278 -0.145576 579.949 -0.153199 557.62C-0.156941 546.67 -0.160831 535.72 -0.164798 524.77C-0.16519 523.68 -0.165582 522.59 -0.165986 521.468C-0.178772 486.145 -0.201306 450.823 -0.228895 415.5C-0.257192 379.203 -0.275659 342.906 -0.281748 306.61C-0.282612 301.484 -0.283589 296.357 -0.284635 291.231C-0.284941 289.703 -0.284941 289.703 -0.285248 288.174C-0.288793 271.93 -0.302709 255.687 -0.320499 239.443C-0.33816 223.115 -0.344907 206.786 -0.340507 190.458C-0.338224 180.756 -0.344316 171.054 -0.362395 161.351C-0.37365 154.869 -0.37399 148.386 -0.365498 141.904C-0.360972 138.211 -0.36115 134.518 -0.374652 130.826C-0.389104 126.843 -0.380208 122.86 -0.369146 118.877C-0.377027 117.738 -0.384908 116.598 -0.393028 115.424C-0.343179 107.487 0.394329 99.2113 4 92H6L7 83H9V78H11V74L13 73C13.9622 71.3266 14.9206 69.6508 15.8535 67.9609C17.7204 64.7678 19.9582 61.8969 22.25 59C22.7389 58.3812 23.2278 57.7623 23.7314 57.1248C26.7621 53.3603 29.8504 50.0932 33.6211 47.0547C37.922 43.34 41.8309 39.2067 45.8096 35.1526C46.4357 34.5183 47.0619 33.884 47.707 33.2305C48.2688 32.6571 48.8306 32.0837 49.4094 31.4929C52.465 28.6249 53.7137 28 58 28L59 25H61L62 22C64.3125 20.9375 64.3125 20.9375 67 20L69.125 18.875C71 18 71 18 74 18V16C74.6407 15.8182 75.2813 15.6365 75.9414 15.4492C79.8491 14.3136 83.5245 13.2331 87.1875 11.4375C91.9405 9.24907 97.3333 9.07505 102.477 8.52735C105.853 8.19781 105.853 8.19781 108.129 6.98243C112.25 5.57217 116.128 5.72851 120.455 5.75391Z" fill="#0B1C2D"/>
<path d="M979 1458H980V1584H111L112 1580C112.647 1580 113.294 1580 113.96 1580C184.393 1579.96 254.826 1579.91 325.259 1579.84C326.311 1579.84 327.363 1579.84 328.447 1579.84C351.317 1579.82 374.186 1579.79 397.055 1579.77C408.271 1579.76 419.486 1579.75 430.701 1579.74C431.817 1579.74 432.933 1579.74 434.083 1579.73C470.251 1579.7 506.418 1579.67 542.586 1579.65C579.756 1579.63 616.926 1579.6 654.096 1579.56C659.347 1579.55 664.599 1579.54 669.85 1579.54C670.883 1579.54 671.917 1579.53 672.982 1579.53C689.611 1579.51 706.241 1579.51 722.871 1579.5C739.594 1579.5 756.316 1579.48 773.039 1579.45C782.971 1579.44 792.904 1579.43 802.836 1579.44C809.478 1579.44 816.119 1579.43 822.76 1579.41C826.54 1579.4 830.32 1579.4 834.1 1579.41C859.15 1579.73 859.15 1579.73 883 1573C884.491 1572.46 885.991 1571.93 887.5 1571.44C888.257 1571.19 889.013 1570.94 889.793 1570.68C891.779 1570.07 893.795 1569.56 895.812 1569.06C899.029 1568.25 899.029 1568.25 900.898 1566.1C903.105 1563.9 905.037 1562.77 907.812 1561.38C929.994 1549.59 948.396 1532.81 961 1511C961.474 1510.18 961.949 1509.36 962.438 1508.52C963.659 1506.36 964.837 1504.19 966 1502C966.443 1501.19 966.887 1500.38 967.344 1499.54C969.929 1494.65 971.681 1490.18 972.641 1484.71C973 1483 973 1483 974 1482C974.354 1480.48 974.658 1478.95 974.938 1477.41C975.197 1476.02 975.197 1476.02 975.461 1474.59C975.639 1473.61 975.817 1472.63 976 1471.62C976.352 1469.7 976.706 1467.78 977.062 1465.85C977.218 1464.99 977.374 1464.14 977.535 1463.25C978 1461 978 1461 979 1458Z" fill="#999A9A"/>
<path d="M301 224L299 228L298 225C299 224 299 224 301 224ZM296 228L298 229C297.602 229.496 297.203 229.993 296.793 230.504C294.241 233.776 292.144 236.663 290.5 240.5C288.09 246.123 284.392 250.765 280 255L281 257L279.125 259.25C277.009 261.771 277.009 261.771 276.062 264.062C275 266 275 266 272.375 268.062L270 270V273C268.865 276.491 267.673 278.533 265 281C262.361 284.027 260.851 286.112 260 290C259.026 291.682 258.023 293.347 257 295C255.4 298.008 254.061 300.801 253.062 304.062C252 307 252 307 249.938 309.562C247.835 312.208 247.504 313.725 247 317C246.35 318.341 245.684 319.675 245 321L244.562 322.812C243.24 327.956 240.786 332.518 238 337C236.434 339.892 235.405 342.716 234.5 345.875C233.16 350.461 231.815 355.013 230 359.438C228.888 362.151 228.888 362.151 228 365.688C227 369 227 369 225 371C224.767 372.933 224.538 374.867 224.34 376.805C223.907 379.6 222.892 382.091 221.832 384.703C220.15 389.347 219.129 394.197 218 399H220L219.125 400.562C217.713 403.622 216.901 406.757 216 410L215 412C214.969 414.796 215.067 417.577 215.16 420.371C215 423 215 423 213 426C212.734 427.894 212.476 429.789 212.277 431.691C211.617 437.187 210.399 442.603 208.937 447.938C207.839 452.111 207.586 456.283 207.344 460.582C207 463 207 463 205 466C204.585 468.017 204.585 468.017 204.437 470.125C204 474 204 474 203 475C202.79 477.142 202.632 479.289 202.5 481.438C202.11 487.78 202.11 487.78 201 490L203 492L201 495V498.062C201 501 201 501 199 503C198.583 505.458 198.583 505.458 199 508C199.762 508.661 199.762 508.661 200.539 509.336C202 511 202 511 202.074 513.48C201.947 514.374 201.819 515.267 201.687 516.188C201.568 517.089 201.448 517.99 201.324 518.918C201.217 519.605 201.11 520.292 201 521L204 522C202.713 523.649 201.42 525.294 200.125 526.938C199.406 527.854 198.686 528.771 197.945 529.715C196 532 196 532 194 533C191.751 538.158 191.416 543.456 191 549H193L194 551L194.812 548.562L196 546L199 545C200.375 543.367 201.706 541.698 203 540C203.978 538.979 204.98 537.979 206 537C208.681 534.389 211.247 531.762 213.625 528.875C215.356 526.779 217.088 524.912 219 523L221 520H224L225 517C228.062 515.812 228.062 515.812 231 515L230 512H233L233.812 510.062C235 508 235 508 238 507L238.937 505C240 503 240 503 242.125 502.25L244 502V500C244.979 498.979 245.98 497.979 247 497L248 495L251 494L252 492H254V490C255.986 488.646 257.988 487.315 260 486C262.739 483.664 264.318 481.473 265.938 478.312C268 475 268 475 270.75 474.062L273 474L270 479H272V477L274.25 477.062C276.723 477.006 278.632 476.631 281 476H284V474H286V471L290 473H288L287.25 475.25C285.009 480.18 281.543 482.321 277 485L275.312 486.688C274 488 274 488 272 488C271.754 488.587 271.508 489.173 271.254 489.777C269.806 492.343 268.218 493.713 265.938 495.562C262.664 498.183 262.664 498.183 261 502C259.02 503.039 257.014 504.029 255 505C247.499 509.392 241.035 515.029 234.501 520.708C233.17 521.854 231.817 522.974 230.461 524.09C225.507 528.169 225.507 528.169 223 534H221V536L216 538V540L212 544C211.751 544.587 211.502 545.173 211.246 545.777C209.421 549.032 206.697 551.24 203.937 553.688C202.757 554.758 201.577 555.829 200.398 556.902C199.819 557.428 199.24 557.954 198.644 558.496C192.876 563.775 187.615 569.102 183.191 575.566C182.602 576.276 182.602 576.276 182 577H180L179.125 579.188C178.083 581.792 177.042 584.396 176 587H175C174.65 580.509 175.808 575.542 177.937 569.438C179.827 563.919 181.277 558.79 182 553L183 552C183.333 550.51 183.612 549.009 183.867 547.504C184.029 546.562 184.191 545.621 184.357 544.651C184.528 543.632 184.699 542.613 184.875 541.562C185.054 540.515 185.234 539.467 185.418 538.388C186.216 533.711 186.999 529.032 187.754 524.348C189.267 514.98 191.045 505.691 192.948 496.395C194.239 490.019 195.437 483.634 196.551 477.227C196.682 476.473 196.813 475.72 196.948 474.944C197.593 471.226 198.229 467.508 198.857 463.787C199.875 457.821 200.932 451.938 202.613 446.113C204.058 441.104 204.664 436.249 205.062 431.062C205.219 429.317 205.377 427.573 205.539 425.828C205.615 424.999 205.692 424.169 205.771 423.314C206.484 416.119 207.706 409.32 210.156 402.52C211.221 399.34 212.039 396.122 212.875 392.875C214.581 386.288 216.637 379.87 218.852 373.438C219.616 371.149 220.325 368.842 220.977 366.52C222.05 362.828 223.361 359.268 224.75 355.688C227.023 349.761 229.062 343.793 231 337.75C233.065 331.365 235.543 325.48 238.691 319.535C240.141 316.727 241.238 313.903 242.293 310.93C244.602 304.629 247.571 298.756 251 293H253C253.164 292.043 253.164 292.043 253.332 291.066C253.491 290.24 253.649 289.414 253.812 288.562C254.039 287.327 254.039 287.327 254.27 286.066C254.511 285.384 254.752 284.703 255 284L258 283L258.375 280.75C258.955 278.199 259.737 276.273 261 274H263L263.812 271.688C264.951 269.11 265.814 267.73 268 266H270V261H273L274 258H276V254H279L279.375 251.188C280 248 280 248 282 245H284L284.188 243.312C285 241 285 241 287.5 238.562C290.118 235.879 290.687 234.652 291 231L296 230V228Z" fill="#2C9A06"/>
<path d="M979 1458H980V1548L976 1549L975.75 1550.75C974.782 1553.65 973.313 1555.04 971 1557H969L968.812 1558.88C968 1561 968 1561 965.5 1562.12L963 1563L962 1565C960.293 1565.96 960.293 1565.96 958.188 1566.94C955.78 1568.09 953.826 1569.13 951.688 1570.75C950 1572 950 1572 947 1572V1574C940.155 1577.13 934.37 1577.38 926.906 1577.26C925.187 1577.25 925.187 1577.25 923.433 1577.24C919.789 1577.21 916.144 1577.17 912.5 1577.12C908.856 1577.09 905.211 1577.06 901.567 1577.03C899.305 1577.02 897.043 1576.99 894.782 1576.96C889.077 1576.91 883.641 1577.13 878 1578V1580H870V1578C870.75 1577.76 871.5 1577.52 872.273 1577.27C878.193 1575.33 883.992 1573.25 889.746 1570.87C891.783 1570.08 893.757 1569.51 895.875 1569C899.039 1568.25 899.039 1568.25 900.895 1566.1C903.103 1563.9 905.034 1562.77 907.812 1561.38C929.994 1549.59 948.396 1532.81 961 1511C961.474 1510.18 961.949 1509.36 962.438 1508.52C963.659 1506.36 964.837 1504.19 966 1502C966.665 1500.78 966.665 1500.78 967.344 1499.54C969.929 1494.65 971.681 1490.18 972.641 1484.71C973 1483 973 1483 974 1482C974.354 1480.48 974.658 1478.95 974.938 1477.41C975.11 1476.48 975.283 1475.55 975.461 1474.59C975.728 1473.12 975.728 1473.12 976 1471.62C976.352 1469.7 976.706 1467.78 977.062 1465.85C977.296 1464.56 977.296 1464.56 977.535 1463.25C978 1461 978 1461 979 1458Z" fill="#858686"/>
<path d="M870 3H881L882 6H879V8C879.724 8.18176 880.449 8.36352 881.195 8.55078C895.247 12.2041 895.247 12.2041 899 17V19L902 19.1875C906.804 19.9052 910.078 22.2544 914 25C915.667 26.1572 917.334 27.3144 919.001 28.4707C920.148 29.2686 921.292 30.0705 922.432 30.877C925.201 32.8228 927.914 34.5995 931 36V39L932.688 39.1875C935.991 40.3481 937.719 42.4021 940 45V47L943 48C945.466 51.3787 946 52.7056 946 57L943 56V54L940.688 54.6875C938 55 938 55 936.312 53.8125C935 52 935 52 934.062 49.9375C932.72 47.4903 931.49 47.1719 929 46C926.75 44 926.75 44 925 42V40H922V38L919.938 37.3125C916.822 35.9206 914.425 34.2059 911.746 32.1211C909.843 30.8994 908.207 30.4299 906 30V28L900 27V24L894 23V21H886L885 19H882L881 17C878.384 16.6439 878.384 16.6439 875.312 16.5625C870.427 16.2557 867.331 15.3241 863 13C861.333 13.3325 859.667 13.666 858 14C855.682 13.6624 855.682 13.6624 853.324 13.0664C848.072 11.909 843.17 11.8088 837.812 11.9375C830.162 12.0354 822.661 11.8374 815.031 11.2188C809.858 10.6695 809.858 10.6695 805 12C802.304 11.8322 799.676 11.3884 797 11V13H791V10C788.038 10.6128 786.619 11.2537 784 13C781.738 12.9766 781.738 12.9766 779.312 12.625C778.504 12.5141 777.696 12.4033 776.863 12.2891C776.248 12.1937 775.634 12.0983 775 12L778 10C773.897 9.88625 773.897 9.88625 769.875 10.5625C767.569 11.1005 766.276 10.6025 764 10C759.526 9.70819 756.183 10.4066 752 12L751 11C748.575 10.9239 746.178 10.9092 743.754 10.9375C743.028 10.9413 742.301 10.9451 741.553 10.949C738.434 10.9654 735.314 10.9935 732.195 11.0205C729.923 11.0385 727.651 11.0507 725.379 11.0625C724.671 11.0708 723.962 11.0791 723.232 11.0876C718.226 11.1128 718.226 11.1128 716 10L715 12L713.406 11.5C710.386 10.8724 707.583 10.9434 704.5 11C698.437 11.1112 698.437 11.1112 695.789 10.4375C692.953 9.74407 690.694 11.0629 688 12L686 11C674.507 10.145 665.456 10.819 655 16C653.836 16.5762 653.836 16.5762 652.648 17.1641C652.104 17.4399 651.56 17.7158 651 18V16L647.781 16.4375C646.354 16.6253 644.927 16.8128 643.5 17C642.804 17.0954 642.108 17.1908 641.391 17.2891C636.553 17.9162 631.878 18.0879 627 18C629.744 16.1708 631.005 15.6231 634.098 15C634.894 14.8362 635.69 14.6724 636.511 14.5037C637.774 14.2543 637.774 14.2543 639.062 14C639.926 13.8241 640.789 13.6482 641.678 13.467C644.118 12.9715 646.558 12.4841 649 12C650.477 11.7042 650.477 11.7042 651.984 11.4023C652.753 11.2489 653.521 11.0955 654.312 10.9375C660.555 9.68904 666.775 8.33385 673 7L114 6V5H877L870 4V3Z" fill="#2C9A06"/>
<path d="M901 1567C898.774 1569.88 896.471 1570.6 893.012 1571.47C890.865 1572.04 888.788 1572.72 886.688 1573.44C873.337 1577.9 860.985 1580.31 846.842 1580.26C845.565 1580.27 844.288 1580.27 842.973 1580.27C839.448 1580.28 835.923 1580.28 832.398 1580.28C828.556 1580.28 824.715 1580.29 820.873 1580.3C814.146 1580.31 807.419 1580.31 800.693 1580.32C790.69 1580.32 780.688 1580.33 770.686 1580.35C753.859 1580.37 737.032 1580.39 720.205 1580.4C703.546 1580.41 686.888 1580.42 670.229 1580.44C668.675 1580.44 668.675 1580.44 667.089 1580.45C661.827 1580.45 656.565 1580.46 651.303 1580.46C614.04 1580.51 576.777 1580.55 539.515 1580.58C503.317 1580.61 467.119 1580.64 430.921 1580.68C429.805 1580.68 428.689 1580.69 427.539 1580.69C416.332 1580.7 405.125 1580.71 393.918 1580.72C371.088 1580.75 348.258 1580.77 325.428 1580.8L322.247 1580.8C252.165 1580.88 182.082 1580.94 112 1581L111 1584H92L91 1577C92.5613 1576.8 94.1242 1576.62 95.6875 1576.44C96.5576 1576.33 97.4277 1576.23 98.3242 1576.12C101 1576 101 1576 103.331 1576.48C106.084 1577.02 108.575 1577.13 111.377 1577.13C112.989 1577.13 112.989 1577.13 114.633 1577.14C115.81 1577.14 116.987 1577.13 118.2 1577.13C120.087 1577.13 120.087 1577.13 122.013 1577.14C125.518 1577.14 129.024 1577.14 132.529 1577.14C136.338 1577.14 140.148 1577.15 143.957 1577.15C151.518 1577.16 159.079 1577.16 166.64 1577.16C175.694 1577.16 184.749 1577.17 193.803 1577.17C215.691 1577.19 237.58 1577.2 259.468 1577.2C269.824 1577.2 280.18 1577.21 290.536 1577.21C325.986 1577.22 361.436 1577.23 396.886 1577.24C399.112 1577.24 401.338 1577.24 403.564 1577.24C405.795 1577.24 408.026 1577.24 410.258 1577.24C414.734 1577.24 419.21 1577.24 423.687 1577.24C425.352 1577.24 425.352 1577.24 427.05 1577.24C463.025 1577.24 498.999 1577.26 534.974 1577.28C573.009 1577.31 611.045 1577.32 649.08 1577.32C653.257 1577.32 657.434 1577.32 661.611 1577.32C663.154 1577.32 663.154 1577.32 664.728 1577.32C681.269 1577.32 697.809 1577.34 714.35 1577.35C730.984 1577.36 747.617 1577.37 764.251 1577.36C774.128 1577.36 784.004 1577.36 793.881 1577.38C800.487 1577.38 807.093 1577.38 813.699 1577.37C817.458 1577.37 821.216 1577.37 824.974 1577.38C839.915 1577.43 854.363 1577.25 869 1574C870.097 1573.77 871.194 1573.54 872.324 1573.3C874.916 1572.74 877.488 1572.13 880.062 1571.5L882.623 1570.89C887.596 1569.69 892.386 1568.25 897.185 1566.47C899 1566 899 1566 901 1567Z" fill="#BEBDBE"/>
<path d="M884 23C885.23 23.1083 885.23 23.1083 886.484 23.2188L889.75 23.5C891.351 23.6392 891.351 23.6392 892.984 23.7812C895.318 23.9505 897.66 24 900 24L898 29L899.75 29.375C902.023 30.0065 903.925 30.8886 906 32V34L912 35V38L913.562 38.375C916.727 39.1864 919.861 40.0946 923 41L922 44L925.188 43.5C933.606 42.396 933.606 42.396 938 45V47L941.938 47.375C944.152 47.5859 944.152 47.5859 946 48L947 50L946 52L954 50V52L957.125 51.3125C961.512 50.9587 963.346 51.6508 967 54C968.48 56.9598 968.13 59.9598 968.114 63.2036C968.114 63.9452 968.114 64.6867 968.114 65.4508C968.113 67.9073 968.105 70.3638 968.098 72.8203C968.096 74.5214 968.094 76.2225 968.093 77.9236C968.09 82.4051 968.08 86.8865 968.069 91.368C968.058 95.9394 968.054 100.511 968.049 105.082C968.038 114.055 968.021 123.027 968 132H967L966.812 128.5C965.686 118.459 962.127 108.159 957.113 99.4062C956 97 956 97 955.195 93.3008C953.99 88.1715 951.364 84.0966 948.562 79.6875C948.072 78.8902 947.582 78.0929 947.076 77.2715C944.926 73.8211 942.898 70.8567 940 68L938.75 65.75C936.337 61.9585 933.228 59.1002 930 56C925 51 925 51 923.375 49.25C921.904 47.7434 921.904 47.7434 919 47L918 44C916.248 42.7834 916.248 42.7834 914.062 41.75C909.557 39.3787 905.483 36.6269 901.359 33.6484C896.666 30.3696 892.579 28.4222 887 27V25L884 24V23Z" fill="#2C9A06"/>
<path d="M970 1505L972 1506C973.234 1510.6 972.801 1513.99 971.625 1518.56C971.349 1519.66 971.073 1520.75 970.789 1521.88C970.529 1522.91 970.268 1523.94 970 1525C969.766 1526.3 969.766 1526.3 969.527 1527.63C968.973 1530.12 968.121 1532.06 966.938 1534.31C966.394 1535.36 966.394 1535.36 965.84 1536.43C965.563 1536.95 965.286 1537.46 965 1538H963C961.784 1540.87 960.883 1543.52 960.188 1546.56C958.816 1550.53 957.342 1551.6 954 1554L953 1557H951V1559H947V1561C944.334 1561.79 941.667 1562.59 939 1563.38C938.256 1563.6 937.512 1563.82 936.746 1564.05C934.501 1564.71 932.252 1565.36 930 1566C929.341 1566.19 928.683 1566.39 928.004 1566.59C922.684 1568.06 917.501 1568.42 912 1568.62C910.695 1568.68 910.695 1568.68 909.363 1568.74C907.242 1568.84 905.121 1568.92 903 1569L905 1565H907V1567L909 1566L908 1563C910.84 1559.96 913.702 1557.78 917.25 1555.62C922.041 1552.63 926.564 1549.49 931 1546C931.865 1545.34 932.73 1544.69 933.621 1544.01C940.447 1538.68 945.803 1532.91 951 1526C951.724 1525.04 952.449 1524.09 953.195 1523.1C956.139 1519.14 958.941 1515.28 961.188 1510.88C963 1508 963 1508 965.688 1507C968 1507 968 1507 969 1508L970 1505Z" fill="#6D6E6F"/>
<path d="M943 49C951.978 55.9203 957.588 65.0884 963.375 74.6875C964.019 75.738 964.019 75.738 964.675 76.8098C967.446 81.5138 968.774 85.6906 970 91C970.922 93.1297 971.901 95.2362 972.938 97.3125C978.411 108.861 980.15 120.048 980.147 132.717C980.151 133.546 980.155 134.375 980.158 135.23C980.169 137.982 980.173 140.733 980.177 143.485C980.183 145.469 980.19 147.452 980.197 149.435C980.218 155.92 980.228 162.406 980.238 168.891C980.242 171.127 980.246 173.364 980.251 175.6C980.27 186.098 980.284 196.595 980.292 207.093C980.302 219.207 980.328 231.321 980.369 243.436C980.399 252.807 980.414 262.179 980.417 271.551C980.419 277.146 980.428 282.742 980.453 288.337C980.477 293.593 980.481 298.85 980.471 304.106C980.47 306.036 980.477 307.966 980.49 309.895C980.508 312.527 980.501 315.158 980.488 317.791C980.499 318.556 980.51 319.321 980.521 320.11C980.461 325.045 979.522 327.545 976 331C974.041 332.394 972.049 333.743 970 335L969 332H967L968 328L971 329C979.514 317.74 976.147 297.333 976.133 283.891C976.133 281.671 976.134 279.451 976.136 277.231C976.137 272.598 976.135 267.966 976.13 263.333C976.125 257.449 976.128 251.565 976.134 245.681C976.138 241.101 976.136 236.521 976.134 231.941C976.133 229.774 976.134 227.607 976.136 225.44C976.145 215.061 976.081 204.703 975.554 194.335C975.515 193.561 975.477 192.788 975.437 191.991C975.221 188.241 974.818 184.664 974 181C972.741 169.329 973.091 157.797 973.681 146.091C973.735 144.972 973.788 143.853 973.844 142.699C973.897 141.697 973.951 140.695 974.006 139.663C974.112 137.066 974.112 137.066 973.447 134.894C972.902 132.584 973.404 131.278 974 129C973.962 127.249 973.854 125.498 973.695 123.754C973.606 122.752 973.517 121.749 973.426 120.717C973.327 119.676 973.227 118.635 973.125 117.562C973.033 116.525 972.942 115.488 972.848 114.42C972.434 109.879 971.958 105.463 971 101H969C968.807 100.18 968.613 99.3603 968.414 98.5156C968.154 97.438 967.893 96.3603 967.625 95.25C967.37 94.1827 967.115 93.1153 966.852 92.0156C965.909 88.6794 965.13 85.9489 962.438 83.6875C960.259 81.1303 960.467 78.268 960 75C958.293 72.4401 957.313 72.0801 954.312 71.3125L952 71V65H950L949 63C947.359 61.9591 945.693 60.955 944 60L944.625 56.75C945.005 52.9517 944.806 52.1157 943 49Z" fill="#2C9A06"/>
<path d="M805 427C802.362 428.759 800.68 429.529 797.719 430.402C796.876 430.653 796.033 430.904 795.164 431.162C794.285 431.418 793.406 431.674 792.5 431.937C791.652 432.19 790.804 432.442 789.93 432.701C787.29 433.481 784.645 434.24 782 435C780.75 435.368 780.75 435.368 779.474 435.743C772.876 437.628 766.352 438.86 759.559 439.789C758.51 439.938 757.462 440.087 756.382 440.24C754.183 440.551 751.984 440.858 749.784 441.162C746.442 441.624 743.101 442.096 739.76 442.57C737.609 442.873 735.459 443.175 733.309 443.477C732.323 443.615 731.337 443.754 730.322 443.896C727.549 444.279 724.776 444.644 722 445C721.237 445.103 720.474 445.205 719.689 445.311C711.328 446.306 702.918 446.163 694.512 446.168C692.786 446.172 691.059 446.176 689.333 446.18C684.734 446.19 680.134 446.191 675.534 446.189C672.685 446.188 669.836 446.188 666.987 446.189C643.559 446.188 620.161 446.008 596.75 445.062C595.664 445.019 594.579 444.976 593.461 444.931C590.447 444.806 587.435 444.674 584.422 444.535C583.571 444.497 582.719 444.458 581.842 444.418C581.05 444.378 580.257 444.338 579.44 444.297C578.77 444.264 578.1 444.23 577.409 444.196C575.387 444.031 573.373 443.771 571.364 443.489C566.482 442.866 561.645 442.867 556.729 442.886C555.732 442.886 554.736 442.886 553.71 442.886C550.442 442.887 547.174 442.894 543.906 442.902C541.631 442.904 539.355 442.906 537.08 442.907C531.109 442.91 525.138 442.92 519.167 442.931C513.067 442.942 506.967 442.946 500.867 442.951C488.911 442.962 476.956 442.979 465 443V442C470.002 440.995 474.766 440.858 479.842 440.871C480.717 440.869 481.591 440.867 482.493 440.865C485.402 440.861 488.31 440.864 491.219 440.867C493.286 440.866 495.353 440.865 497.42 440.863C502.966 440.86 508.512 440.865 514.058 440.871C517.493 440.875 520.928 440.877 524.362 440.879C553.202 440.895 582.04 441.001 610.878 441.406C613.125 441.437 615.372 441.467 617.619 441.497C621.728 441.552 625.837 441.616 629.945 441.684C631.738 441.709 631.738 441.709 633.567 441.734C634.646 441.754 635.725 441.774 636.836 441.795C638.235 441.818 638.235 441.818 639.661 441.842C642 442 642 442 645 443C646.869 443.103 648.742 443.149 650.614 443.161C652.342 443.176 652.342 443.176 654.105 443.19C655.351 443.194 656.598 443.199 657.883 443.203C659.167 443.209 660.451 443.215 661.774 443.22C664.496 443.231 667.217 443.237 669.939 443.24C673.406 443.246 676.872 443.27 680.338 443.298C683.666 443.321 686.993 443.323 690.32 443.328C691.555 443.34 692.79 443.353 694.062 443.366C701.045 443.348 706.515 442.632 713 440L712 438H710V436H705V433C708.624 430.584 710.358 430.728 714.675 430.681C715.685 430.666 715.685 430.666 716.715 430.651C718.939 430.62 721.163 430.603 723.387 430.586C724.929 430.567 726.472 430.548 728.015 430.527C732.074 430.476 736.133 430.436 740.192 430.399C744.334 430.359 748.477 430.308 752.619 430.258C760.746 430.161 768.873 430.077 777 430V429C778.241 428.939 779.483 428.879 780.762 428.816C782.404 428.732 784.046 428.647 785.688 428.562C786.504 428.523 787.321 428.484 788.162 428.443C793.83 428.145 799.343 426.838 805 427Z" fill="#2C9A06"/>
<path d="M980 326V1458H979V330L976 331C978.419 326 978.419 326 980 326Z" fill="#D7D5D8"/>
<path d="M870 3H881L882 6H879V8C879.724 8.18176 880.449 8.36352 881.195 8.55078C886.468 9.92168 891.255 11.3068 896 14V15C891.131 14.4038 886.672 13.4302 882 12V10L879.062 10.0625C876 10 876 10 875 9C859.768 6.30326 844.248 6.70456 828.839 6.72053C825.022 6.72225 821.205 6.71234 817.387 6.70397C810.713 6.69092 804.039 6.68512 797.364 6.68421C787.44 6.68283 777.516 6.67001 767.591 6.65493C750.893 6.62986 734.195 6.61396 717.496 6.60334C700.971 6.59281 684.446 6.57816 667.921 6.55806C666.378 6.55619 666.378 6.55619 664.803 6.55428C659.578 6.54791 654.353 6.54148 649.128 6.53501C612.151 6.48939 575.175 6.45293 538.198 6.42188C502.284 6.39169 466.369 6.35735 430.455 6.31738C429.347 6.31615 428.24 6.31492 427.098 6.31365C415.974 6.30129 404.849 6.28883 393.725 6.27632C371.065 6.25083 348.404 6.22591 325.744 6.20132C324.702 6.20019 323.66 6.19906 322.587 6.1979C253.058 6.12249 183.529 6.06021 114 6V5H877L870 4V3Z" fill="#706E7C"/>
<path d="M962 334L965 335C963.363 344.752 951.983 353.37 945.312 360C944.584 360.726 944.584 360.726 943.84 361.466C936.63 368.625 929.423 375.271 921 381C920.288 381.492 919.577 381.984 918.843 382.49C897.809 397 897.809 397 893 397V399C888.368 401.04 883.732 403.071 879.09 405.089C877.276 405.88 875.464 406.676 873.652 407.473C862.83 412.135 851.934 414.489 840.375 416.569C835.808 417.398 831.248 418.262 826.688 419.125C825.774 419.296 824.86 419.466 823.918 419.642C823.062 419.804 822.206 419.966 821.324 420.133C820.181 420.348 820.181 420.348 819.014 420.567C816.811 421.002 816.811 421.002 814 422C812.272 422.068 810.542 422.085 808.812 422.062C807.461 422.049 807.461 422.049 806.082 422.035C805.395 422.024 804.708 422.012 804 422L805 420C806.934 419.402 806.934 419.402 809.438 418.938C810.335 418.77 811.232 418.602 812.156 418.43C815.72 417.891 819.273 417.62 822.871 417.441C825.451 416.907 826.257 415.906 828 414H830V416H832L833 413L836.562 413.188C840.943 413.195 844.054 411.936 848 410C851.555 408.392 854.088 407.776 858 408L859 405H861V407C862.275 406.404 863.544 405.798 864.812 405.188C865.52 404.851 866.228 404.515 866.957 404.168C869.011 402.994 870.416 401.744 872 400L873 402H875V404C881.284 401.912 881.284 401.912 885.562 397.25L886 395H889V393H893L895 387L901 388L902 386C904.562 385.375 904.562 385.375 907 385V381L909.125 381.312C913.289 380.86 914.896 378.759 918 376H920V374H922L922.875 372.188C924 370 924 370 926 367C926.641 366.84 927.281 366.68 927.941 366.516C930.563 365.859 931.287 364.853 932.938 362.75C935.483 359.624 938.025 356.727 941 354H943L944 351H947L950 350L951 344L954 345V342L958 341L959 337H961L962 334Z" fill="#2C9A06"/>
<path d="M923 31C928.184 31.7976 931.966 34.9141 935.5 38.625C938.249 41.2364 940.364 42.0699 944 43V46L948 47L949 51H958L958.812 53.375C959.848 56.2811 959.848 56.2811 963 58L962 60L968 63V65L974 66V71H976C976.667 73.6667 977.333 76.3333 978 79C978.339 80.1892 978.678 81.3783 979.027 82.6035C980.14 87.0729 980.257 91.2886 980.195 95.875C980.192 96.6849 980.19 97.4949 980.187 98.3293C980.176 100.886 980.151 103.443 980.125 106C980.115 107.746 980.106 109.492 980.098 111.238C980.076 115.492 980.041 119.746 980 124H979L978.812 120.5C977.686 110.459 974.127 100.159 969.113 91.4062C968 89 968 89 967.195 85.3008C965.99 80.1715 963.364 76.0966 960.562 71.6875C960.072 70.8902 959.582 70.0929 959.076 69.2715C956.926 65.8211 954.898 62.8567 952 60L950.75 57.75C948.337 53.9585 945.228 51.1002 942 48C937 43 937 43 935.375 41.25C933.904 39.7434 933.904 39.7434 931 39L930 36C928.371 34.7755 928.371 34.7755 926.438 33.8125L923 32V31Z" fill="#2C9A06"/>
<path d="M543.012 435.77C544.257 435.771 545.503 435.772 546.786 435.773C548.717 435.793 548.717 435.793 550.688 435.812C552.035 435.819 553.382 435.826 554.73 435.832C562.492 435.893 570.182 436.126 577.918 436.777C582.944 437.14 587.964 437.084 593 437L594 439L595 438C600.529 437.765 600.529 437.765 603 439C605.748 439.063 608.471 439.067 611.219 439.027C612.889 439.015 614.56 439.002 616.23 438.99C618.871 438.965 621.511 438.937 624.151 438.904C626.694 438.874 629.238 438.856 631.781 438.84C632.574 438.826 633.367 438.813 634.183 438.799C636.123 438.79 638.063 438.886 640 439L642 441C641 442 641 442 638.261 442.117C636.391 442.112 636.391 442.112 634.52 442.107C633.835 442.106 633.15 442.106 632.444 442.105C630.13 442.102 627.817 442.092 625.503 442.082C623.851 442.078 622.199 442.075 620.546 442.072C616.977 442.066 613.408 442.056 609.839 442.045C604.185 442.026 598.531 442.017 592.878 442.009C576.796 441.984 560.715 441.949 544.633 441.904C535.759 441.879 526.886 441.862 518.012 441.852C512.404 441.846 506.795 441.83 501.187 441.808C497.676 441.796 494.165 441.793 490.653 441.792C489.039 441.79 487.424 441.784 485.809 441.775C477.014 441.726 468.552 442.112 459.855 443.543C456.393 444.097 453.065 444.27 449.562 444.375C441.765 444.729 434.209 446.076 426.541 447.479C418.386 448.967 410.239 450.091 402 451C406.184 448.211 410.678 448.013 415.576 447.408C421.189 446.566 423.868 444.872 428 441C431.952 439.683 435.863 440 440 440L442 439L445 440V442L453 443V441C459.851 439.954 466.655 439.75 473.578 439.585C475.69 439.534 477.802 439.477 479.914 439.419C485.914 439.255 491.914 439.098 497.914 438.95C501.6 438.859 505.285 438.76 508.971 438.655C510.364 438.617 511.757 438.583 513.149 438.551C520.236 438.391 526.943 438.01 533.862 436.44C536.925 435.81 539.891 435.758 543.012 435.77Z" fill="#2C9A06"/>
<path d="M767 439C758.576 441.431 750.441 443.432 741.707 444.41C738.493 444.922 735.556 445.659 732.428 446.523C726.621 447.98 721.408 448.363 715.449 448.215C714.376 448.202 713.302 448.189 712.196 448.176C709.648 448.145 707.099 448.109 704.551 448.067C699.294 447.984 694.037 447.948 688.78 447.911C678.922 447.84 669.065 447.754 659.208 447.661C653.455 447.606 647.701 447.552 641.948 447.503C619.175 447.306 596.404 447.082 573.637 446.527C572.823 446.509 572.009 446.49 571.17 446.471C568.899 446.417 566.629 446.358 564.358 446.297C563.097 446.264 561.836 446.23 560.537 446.196C557 446 557 446 553.583 445.494C549.464 444.926 545.462 444.825 541.311 444.795C540.051 444.78 540.051 444.78 538.766 444.765C536.012 444.733 533.258 444.708 530.504 444.684C528.586 444.663 526.668 444.642 524.75 444.621C519.717 444.566 514.685 444.516 509.653 444.468C504.511 444.417 499.37 444.362 494.229 444.307C484.152 444.199 474.076 444.098 464 444V446C463.178 446.025 462.356 446.05 461.509 446.076C457.777 446.192 454.045 446.315 450.312 446.438C449.019 446.477 447.725 446.516 446.393 446.557C445.145 446.599 443.898 446.64 442.613 446.684L439.138 446.795C436.326 446.979 433.747 447.4 431 448C429.564 448.063 428.125 448.087 426.688 448.063L423 448V447C454.171 440.506 486.642 441.703 518.306 441.804C522.615 441.815 526.924 441.815 531.233 441.814C535.416 441.815 539.599 441.82 543.782 441.827C545.763 441.83 547.743 441.832 549.724 441.833C552.473 441.835 555.222 441.844 557.971 441.855C558.771 441.854 559.571 441.854 560.395 441.853C565.349 441.881 570.091 442.326 575 443C576.479 443.12 577.959 443.224 579.44 443.297C580.629 443.357 580.629 443.357 581.843 443.418C583.119 443.476 583.119 443.476 584.422 443.535C585.358 443.578 586.294 443.622 587.258 443.666C613.294 444.822 639.335 445.29 665.394 445.408C668.988 445.425 672.582 445.453 676.176 445.492C704.718 445.784 732.542 443.621 760.606 438.249C763.042 437.996 764.688 438.245 767 439Z" fill="#DDEFD4"/>
<path d="M969 95L970 99H972C973.714 102.131 974.691 105.168 975.562 108.625C975.811 109.587 976.06 110.548 976.316 111.539C978.468 122.433 978.136 133.442 978.114 144.495C978.113 146.467 978.113 148.438 978.114 150.41C978.114 155.74 978.108 161.07 978.101 166.4C978.095 171.978 978.095 177.557 978.093 183.136C978.09 193.689 978.082 204.243 978.072 214.797C978.061 226.816 978.055 238.835 978.05 250.855C978.04 275.57 978.022 300.285 978 325L976 326L975.125 328.875C973.914 332.24 973.001 333.199 970 335L969 332H967L968 328L971 329C979.514 317.74 976.147 297.333 976.133 283.891C976.133 281.671 976.134 279.451 976.136 277.231C976.137 272.598 976.135 267.966 976.13 263.333C976.125 257.449 976.128 251.565 976.134 245.681C976.138 241.101 976.136 236.521 976.134 231.941C976.133 229.774 976.134 227.607 976.136 225.44C976.145 215.061 976.081 204.703 975.554 194.335C975.515 193.561 975.477 192.788 975.437 191.991C975.221 188.241 974.818 184.664 974 181C972.741 169.329 973.091 157.797 973.681 146.091C973.735 144.972 973.788 143.853 973.844 142.699C973.897 141.697 973.951 140.695 974.006 139.663C974.112 137.066 974.112 137.066 973.447 134.894C972.902 132.584 973.404 131.278 974 129C973.962 127.249 973.854 125.498 973.695 123.754C973.606 122.752 973.517 121.749 973.426 120.717C973.327 119.676 973.227 118.635 973.125 117.562C973.033 116.525 972.942 115.488 972.848 114.42C972.434 109.879 971.958 105.463 971 101H969V95Z" fill="#2C9A06"/>
<path d="M32 49C32 52 32 52 31 55H29V57L35 55C36 58 36 58 35 61L39 62H36L35 65C33.0625 67.1875 33.0625 67.1875 31 69H29V71H27V73L25.0625 73.875C22.8479 74.8282 22.8479 74.8282 22 77H24L23 86H20L18 89L15.25 87.875C12.162 86.7643 12.162 86.7643 9.6875 87.5625C7.41598 89.4975 7.3055 91.0978 7 94H5L3 107H0.999999V114H-5.88596e-07C-0.428474 106.573 0.637253 98.7255 4 92H6L7 83H9V78H11V74L13 73C13.9555 71.332 14.9075 69.6618 15.8359 67.9785C17.7744 64.6837 20.1259 61.7387 22.5 58.75C22.9731 58.139 23.4462 57.528 23.9336 56.8984C26.3788 53.7963 28.6507 51.1802 32 49Z" fill="#101E2F"/>
<path d="M479.842 440.871C480.717 440.869 481.591 440.867 482.493 440.865C485.402 440.861 488.31 440.864 491.219 440.867C493.286 440.866 495.353 440.865 497.42 440.863C502.966 440.86 508.512 440.864 514.058 440.871C517.493 440.875 520.928 440.878 524.362 440.88C553.202 440.901 582.04 440.985 610.878 441.348C613.125 441.375 615.372 441.399 617.619 441.421C621.728 441.464 625.837 441.523 629.945 441.586C631.738 441.603 631.738 441.603 633.567 441.621C635.185 441.651 635.185 441.651 636.836 441.681C638.235 441.701 638.235 441.701 639.661 441.722C642 442 642 442 645 444C648.013 444.33 648.013 444.33 651.491 444.319C652.145 444.329 652.799 444.339 653.473 444.349C655.631 444.38 657.79 444.397 659.949 444.414C661.447 444.433 662.945 444.452 664.443 444.473C668.383 444.524 672.324 444.564 676.265 444.601C680.287 444.641 684.308 444.692 688.33 444.742C696.22 444.839 704.11 444.923 712 445V446C629.356 446.393 629.356 446.393 596.75 445.063C595.665 445.019 594.581 444.975 593.463 444.93C590.449 444.806 587.435 444.674 584.422 444.535C583.145 444.477 583.145 444.477 581.842 444.418C580.653 444.358 580.653 444.358 579.44 444.297C578.77 444.264 578.1 444.23 577.409 444.196C575.387 444.032 573.373 443.771 571.364 443.489C566.482 442.866 561.645 442.867 556.729 442.886C555.732 442.886 554.736 442.886 553.71 442.886C550.442 442.887 547.174 442.894 543.906 442.902C541.631 442.904 539.355 442.906 537.08 442.907C531.109 442.91 525.138 442.92 519.167 442.931C513.067 442.942 506.967 442.946 500.867 442.951C488.911 442.962 476.956 442.979 465 443V442C470.002 440.995 474.766 440.858 479.842 440.871Z" fill="#2C9A06"/>
<path d="M74 1569C80.1522 1569 81.079 1569.01 86 1571C88.335 1571.33 90.6611 1571.56 93.0117 1571.75C95 1572 95 1572 97 1573V1575C97.8082 1575.06 98.6165 1575.12 99.4492 1575.18C100.518 1575.27 101.586 1575.35 102.688 1575.44C103.743 1575.52 104.799 1575.6 105.887 1575.68C108.651 1575.96 111.289 1576.4 114 1577V1578C108.395 1578.11 102.989 1577.76 97.418 1577.12C94.8564 1576.85 94.8564 1576.85 92 1578V1584H74V1569Z" fill="#CBCBCC"/>
<path d="M976 1564H980V1584H949C960.073 1576.62 960.073 1576.62 965.312 1574.94C969.83 1573.36 972.282 1570.29 974.562 1566.19L976 1564Z" fill="#B2B3B4"/>
<path d="M870 3H881L882 6H879V8C880.087 8.27264 880.087 8.27264 881.195 8.55078C886.468 9.92168 891.255 11.3068 896 14V15C891.131 14.4038 886.672 13.4302 882 12V10L879.062 10.0625C876 10 876 10 875 9C862.986 7.14789 851.025 6.69649 838.892 6.68115C837.165 6.67182 835.439 6.66165 833.712 6.65071C829.087 6.62375 824.462 6.60836 819.837 6.59528C814.981 6.5795 810.124 6.55276 805.267 6.52725C796.099 6.48072 786.93 6.44386 777.762 6.41058C767.312 6.37217 756.862 6.32281 746.412 6.2726C724.941 6.16966 703.471 6.08028 682 6V5H877L870 4V3Z" fill="#8EB082"/>
<path d="M923 31C930.632 32.1742 935.953 38.7035 941.062 43.9375C941.757 44.6407 942.451 45.3439 943.166 46.0684C944.512 47.4324 945.856 48.799 947.197 50.1685C948.713 51.7086 950.252 53.2262 951.797 54.7383C953.818 56.8133 955.51 58.8941 957.188 61.25C959.162 64.1227 959.162 64.1227 962 66V68H964V70L967 69C967.777 71.6624 968.15 74.2514 968.438 77C968.793 80.0977 969.522 82.2409 971 85V89H973L974 95H976C978.83 104.843 980.638 113.652 980 124H979L978.812 120.5C977.686 110.459 974.127 100.159 969.113 91.4062C968 89 968 89 967.195 85.3008C965.99 80.1715 963.364 76.0966 960.562 71.6875C960.072 70.8902 959.582 70.0929 959.076 69.2715C956.926 65.8211 954.898 62.8567 952 60L950.75 57.75C948.337 53.9585 945.228 51.1002 942 48C937 43 937 43 935.375 41.25C933.904 39.7434 933.904 39.7434 931 39L930 36C928.371 34.7755 928.371 34.7755 926.438 33.8125L923 32V31Z" fill="#2C9A06"/>
<path d="M767 439C758.576 441.431 750.441 443.432 741.707 444.41C738.507 444.919 735.596 445.656 732.483 446.523C726.387 448.056 720.827 448.362 714.57 448.215C713.473 448.202 712.376 448.189 711.245 448.176C708.816 448.146 706.388 448.109 703.959 448.067C699.745 447.996 695.53 447.95 691.315 447.911C683.453 447.834 675.591 447.735 667.729 447.628C663.659 447.572 659.59 447.522 655.521 447.473C652.319 447.434 649.117 447.391 645.915 447.347C644.415 447.327 642.916 447.308 641.416 447.291C631.249 447.171 621.142 446.722 611 446V445C612.179 445.011 613.357 445.022 614.572 445.034C625.876 445.137 637.181 445.211 648.486 445.259C654.293 445.285 660.099 445.319 665.906 445.377C695.905 445.668 724.999 444.691 754.57 439.356C756.173 439.068 756.173 439.068 757.809 438.775C758.723 438.601 759.638 438.427 760.58 438.248C763.028 437.997 764.678 438.24 767 439Z" fill="#CFEAC9"/>
<path d="M440 439L445 440V442L453 443V441C458.619 440.199 464.04 439.86 469.711 439.886C470.956 439.886 470.956 439.886 472.227 439.886C474.943 439.887 477.659 439.894 480.375 439.902C482.269 439.904 484.164 439.906 486.058 439.907C491.023 439.91 495.987 439.92 500.952 439.931C506.027 439.942 511.101 439.946 516.176 439.951C526.117 439.962 536.059 439.979 546 440V441C544.637 441.012 544.637 441.012 543.247 441.025C534.627 441.103 526.008 441.19 517.389 441.288C512.959 441.337 508.529 441.384 504.1 441.422C499.814 441.459 495.528 441.506 491.242 441.558C489.618 441.576 487.994 441.592 486.37 441.603C477.375 441.671 468.727 442.095 459.834 443.55C456.38 444.098 453.056 444.27 449.562 444.375C441.765 444.729 434.209 446.076 426.541 447.479C418.386 448.967 410.239 450.091 402 451C406.184 448.211 410.678 448.013 415.576 447.408C421.189 446.566 423.868 444.872 428 441C431.938 439.687 435.874 439.919 440 440V439Z" fill="#2C9A06"/>
<path d="M979 124H980C980.117 150.251 980.205 176.502 980.259 202.754C980.285 214.942 980.32 227.131 980.377 239.319C980.427 249.941 980.459 260.563 980.47 271.185C980.477 276.811 980.492 282.436 980.529 288.062C980.563 293.355 980.573 298.648 980.566 303.941C980.567 305.886 980.577 307.83 980.596 309.774C980.621 312.427 980.615 315.077 980.601 317.73C980.616 318.501 980.63 319.273 980.645 320.068C980.588 324.184 980.155 325.816 977.462 329.017C976.244 329.999 976.244 329.999 975 331V325H979V124Z" fill="#3D8F32"/>
<path d="M864 415C856.777 418.704 849.492 420.48 841.562 422.063C839.675 422.447 839.675 422.447 837.75 422.838C823.797 425.581 809.263 428.182 795 428L797 427L797.312 424.625C798 422 798 422 800.562 420.188L803 419V422L805.562 420.938C809.45 419.877 812.084 420.217 816 421V419L818.625 419.063C821.859 419.003 824.828 418.604 828 418L829 420C826.055 421.473 822.92 421.606 819.688 422C815.426 422.529 811.201 423.09 807 424C813.697 424.487 819.538 423.272 825.986 421.636C832.589 420.001 839.214 418.977 845.96 418.128C850.969 417.457 855.442 416.311 860.17 414.508C862 414 862 414 864 415Z" fill="#2C9A06"/>
<path d="M190 511H191C190.882 514.97 190.758 518.939 190.628 522.908C190.584 524.259 190.543 525.61 190.503 526.962C190.445 528.9 190.381 530.839 190.316 532.777C190.261 534.529 190.261 534.529 190.205 536.316C190 539 190 539 189 540C188.793 541.495 188.633 542.997 188.5 544.5C188.111 548.889 188.111 548.889 187 550C186.462 553.618 186.033 557.244 185.598 560.875C185.4 561.906 185.203 562.938 185 564L183 565C182.309 567.58 182.309 567.58 181.875 570.562C181.707 571.574 181.54 572.586 181.367 573.629C181.185 574.803 181.185 574.803 181 576L177 577L176 581C175 579 175 579 175.421 577.14C175.672 576.399 175.922 575.658 176.18 574.895C176.449 574.075 176.719 573.256 176.996 572.412C177.286 571.554 177.576 570.696 177.875 569.812C179.772 564.177 181.265 558.902 182 553L183 552C183.333 550.51 183.612 549.009 183.867 547.504C184.029 546.56 184.191 545.617 184.358 544.645C184.529 543.628 184.699 542.61 184.875 541.562C185.138 540.018 185.138 540.018 185.407 538.443C185.943 535.296 186.472 532.148 187 529C187.158 528.059 187.316 527.118 187.479 526.148C188.328 521.1 189.168 516.051 190 511Z" fill="#59BF08"/>
<path d="M569 37C567.73 37.6483 566.459 38.2936 565.188 38.9375C564.48 39.2971 563.772 39.6568 563.043 40.0273C561 41 561 41 558 42L557 44H555V46L551.875 45.8125C547.677 46.0156 545.631 46.9912 542 49C538.796 50.2272 536.111 50.9895 532.688 51.3125C527.114 52.3517 522.029 54.9712 518 59C515.398 59.4141 515.398 59.4141 512.375 59.625C511.372 59.6998 510.369 59.7745 509.336 59.8516C508.18 59.925 508.18 59.925 507 60V62C503.146 64.9198 499.739 65.4831 495 66C493.661 66.309 492.323 66.6294 491 67V69L487 68C491.774 65.525 496.483 63.1009 501.562 61.3125C505.074 60.4156 505.074 60.4156 506 58C507.803 57.5491 509.609 57.1061 511.422 56.6953C516.765 55.2544 521.859 53.0305 527 51C528.498 50.4333 529.998 49.87 531.5 49.3125C535.513 47.8078 539.459 46.2406 543.375 44.5C549.727 41.8717 556.3 40.4281 563 39V37C565.491 35.7545 566.411 36.2232 569 37Z" fill="#2A8A0C"/>
<path d="M71 18L73 19C67.5 23 67.5 23 63 23V26H60V31H56V33H59V35L62 34L63 36L61.125 36.25L59 37L58.1875 38.8125C56.3968 42.1111 53.4433 43.6343 50 45H46V43H48L48.9375 41.125L51 37L43 39C49.6549 30.8586 49.6549 30.8586 54 28H58L59 25H61L62 22C64.3125 20.9375 64.3125 20.9375 67 20L69.1875 18.8125L71 18Z" fill="#0B1C2D"/>
<path d="M28 52L29 54L27.4688 55.8281L25.5 58.25L23.5312 60.6406C21.6371 63.0904 21.6371 63.0904 22 67L20 68V76L17 77C15.7912 79.0002 15.7912 79.0002 15 81V79C13.0039 79.5354 13.0039 79.5354 11 81C9.64135 84.0821 9.64135 84.0821 8.75 87.625C8.41484 88.8135 8.07969 90.002 7.73437 91.2266C7.49203 92.1418 7.24969 93.057 7 94H5L3 107H0.999999V114H-5.88596e-07C-0.428474 106.573 0.637253 98.7255 4 92H6L7 83H9V78H11V74L13 73C13.9486 71.3357 14.8939 69.6695 15.8184 67.9917C17.8226 64.6134 20.2884 61.6152 22.75 58.5625C23.2566 57.9263 23.7632 57.2902 24.2852 56.6348C25.5192 55.0864 26.759 53.5427 28 52Z" fill="#0B1C2D"/>
<path d="M209 545L212 546C211.557 546.412 211.114 546.825 210.658 547.25C195.884 560.433 195.884 560.433 183.227 575.531C182.822 576.016 182.417 576.501 182 577H180L179.125 579.188C178.083 581.792 177.042 584.396 176 587H175C174.687 580.122 174.687 580.122 177 577C179.125 576.25 179.125 576.25 181 576L181.375 574.25C182.006 571.977 182.889 570.075 184 568H187L187.375 566.375C188.122 563.536 189.053 560.778 190 558L192 560L192.938 558.125L195 554H197L198 552L200 553V550C200.566 549.89 201.132 549.781 201.715 549.668C202.815 549.43 202.815 549.43 203.938 549.188C204.668 549.037 205.399 548.886 206.152 548.73C207.067 548.369 207.067 548.369 208 548L209 545Z" fill="#5BB21D"/>
<path d="M896 15C897.23 15.1083 897.23 15.1083 898.484 15.2188L901.75 15.5C903.351 15.6392 903.351 15.6392 904.984 15.7812C907.318 15.9505 909.66 16 912 16L910 21L911.75 21.375C914.023 22.0065 915.925 22.8886 918 24V26L924 27V30L925.875 30.3125C928 31 928 31 930 34C923.538 32.3612 918.696 29.6948 913.359 25.7188C908.708 22.3307 904.598 20.427 899 19V17L896 16V15Z" fill="#2C9A06"/>
<path d="M825 427.014C821.105 428.758 818.623 429.522 814.251 430.388C813.016 430.636 811.781 430.883 810.508 431.138C809.201 431.393 807.894 431.648 806.548 431.911C805.214 432.174 803.881 432.437 802.507 432.708C799.869 433.226 797.231 433.742 794.591 434.256C791.689 434.823 788.796 435.408 785.904 435.999C777.978 437.571 771.269 438.239 763 437.924C767.034 435.214 770.892 434.881 776.378 433.895C782.706 433.065 782.706 433.065 788.095 430.981L783.667 428.997C785.499 428.937 787.332 428.877 789.22 428.815C791.643 428.732 794.067 428.648 796.491 428.563C797.697 428.524 798.902 428.485 800.144 428.445C808.511 428.149 816.649 426.853 825 427.014Z" fill="#2C9A06"/>
<path d="M349 461L356 462C353.349 463.767 351.509 464.603 348.535 465.551C347.658 465.835 346.781 466.119 345.877 466.412C344.484 466.858 344.484 466.858 343.062 467.312C336.01 469.607 329.143 472.013 322.375 475.055C319.926 476.029 317.595 476.564 315 477V475H318V473H323L324 471C328.429 468.134 331.698 466.602 337 466L340 465L343 466V463H349V461Z" fill="#4E9A2A"/>
<path d="M962 75C965.911 78.6502 967.606 81.1964 968.75 86.4375C969.656 90.3374 971.204 93.7083 972.938 97.3125C976.951 105.79 979.534 113.572 979 123H978L972 99H970V95L967 94C966.944 93.0777 966.944 93.0777 966.887 92.1367C966.821 91.3285 966.755 90.5202 966.688 89.6875C966.6 88.4867 966.6 88.4867 966.512 87.2617C965.907 84.5882 964.937 83.8566 963 82C962.312 78.3125 962.312 78.3125 962 75Z" fill="#2C9A06"/>
<path d="M901 1567C898.35 1570.43 895.027 1571.06 891 1572C890.081 1572.23 889.162 1572.45 888.215 1572.68C863.093 1578.69 863.093 1578.69 851 1578V1577C852.056 1576.84 853.111 1576.68 854.199 1576.52C862.902 1575.17 871.492 1573.54 880.062 1571.5C880.917 1571.3 881.772 1571.1 882.653 1570.89C887.615 1569.69 892.395 1568.24 897.185 1566.47C899 1566 899 1566 901 1567Z" fill="#D0D1D1"/>
<path d="M861.665 412.229L863.766 412.993C856.724 417.788 849.194 420.279 841.119 422.837C839.25 423.444 839.25 423.444 837.344 424.064C829.036 426.747 821.073 429.138 812.373 429.985L812.259 428.992C822.146 425.042 832.226 422.171 842.486 419.365C847.888 417.854 853.084 416.384 858.137 413.925C859.301 413.365 860.465 412.806 861.665 412.229Z" fill="#2C9A06"/>
<path d="M817 6C822.367 5.9497 827.734 5.91387 833.101 5.89014C834.918 5.88023 836.735 5.86669 838.552 5.84913C848.046 5.75981 857.436 5.85027 866.883 6.88282C867.96 6.99978 867.96 6.99978 869.059 7.11911C873.557 7.66969 877.69 8.66053 882 10V11C880.521 11.0269 879.042 11.0464 877.562 11.0625C876.327 11.0799 876.327 11.0799 875.066 11.0977C873 11 873 11 872 10C869.163 9.78898 866.341 9.62393 863.5 9.5C855.135 9.13514 855.135 9.13514 854 8C851.263 7.8399 848.548 7.74054 845.809 7.6836C844.579 7.65243 844.579 7.65243 843.324 7.62062C840.695 7.55504 838.066 7.4962 835.438 7.4375C833.659 7.39433 831.881 7.35071 830.104 7.30664C825.736 7.19935 821.368 7.09811 817 7V6Z" fill="#2E8011"/>
<path d="M322 476L318 477V479C315 481 315 481 312 481L311 484L308 483L306.625 484.5C305 486 305 486 303 486L302 489L299.312 488.938C296.378 488.993 293.845 489.331 291 490C293.419 487.252 295.924 485.892 299.219 484.336C300.233 483.854 301.248 483.372 302.293 482.875C303.351 482.38 304.41 481.885 305.5 481.375C306.558 480.872 307.617 480.37 308.707 479.852C319.5 474.75 319.5 474.75 322 476Z" fill="white"/>
<path d="M627 19L616 22V24H612L611 27C610.154 27.049 609.309 27.098 608.438 27.1484C600.856 27.6112 600.856 27.6112 593.438 29.125C590.102 29.974 589.11 29.9664 586 29C587.596 28.541 587.596 28.541 589.191 28.082C597.81 25.5846 606.345 22.942 614.828 20.0156C619.574 18.496 622.089 17.7722 627 19Z" fill="#237512"/>
<path d="M111 6L109.062 6.9375C107.064 7.83451 107.064 7.83451 106 9C103.625 9.32574 101.257 9.61066 98.875 9.875C93.38 10.5386 88.9789 11.6101 84 14C81.0223 14.7867 78.0237 15.4172 75 16L77 15L78 12L80.375 12.125C83.1612 12.2873 83.1612 12.2873 85 10H88V8L86 7C86.9958 7.0174 86.9958 7.0174 88.0117 7.03515C93.2859 7.13585 93.2859 7.13585 98.5 6.5C102.627 5.67469 106.805 5.92669 111 6Z" fill="#0B1C2D"/>
<path d="M870 3H881L882 6H879V8C879.724 8.18176 880.449 8.36352 881.195 8.55078C886.468 9.92168 891.255 11.3068 896 14V15C891.131 14.4038 886.672 13.4302 882 12V10L879.5 10.1875C875.118 9.95275 872.045 8.67381 868 7V6L877 5L870 4V3Z" fill="#2C9A06"/>
<path d="M349 162L351 163C350.096 163.88 349.193 164.761 348.262 165.668C347.07 166.841 345.879 168.014 344.688 169.188C343.795 170.055 343.795 170.055 342.885 170.939C339.674 174.115 337.284 177.075 335 181H333L332.875 183.312C332 186 332 186 329.125 187.812C326 189 326 189 323 189C323.951 187.827 324.911 186.662 325.875 185.5C326.409 184.85 326.942 184.201 327.492 183.531C327.99 183.026 328.487 182.521 329 182H331L331.769 180.243C333.138 177.749 334.67 176.103 336.695 174.109C337.411 173.4 338.126 172.691 338.863 171.961C339.61 171.231 340.356 170.502 341.125 169.75C342.256 168.632 342.256 168.632 343.41 167.492C345.269 165.657 347.132 163.826 349 162Z" fill="#308D0B"/>
<path d="M13 73L14 75C13.1091 77.3275 12.1673 79.5541 11.125 81.8125C9.29013 85.8216 7.65333 89.6026 7 94H5L3 107H0.999999V114H-5.88596e-07C-0.428474 106.573 0.637253 98.7255 4 92H6L7 83H9V78H11V74L13 73Z" fill="#5D656D"/>
<path d="M260 507L262 508C261.625 509.938 261.625 509.938 261 512C258.509 513.245 257.589 512.777 255 512L256 517L253.75 517.875C251.433 518.823 249.221 519.848 247 521V519L243 520C246.25 516.493 249.813 513.906 253.75 511.25C254.352 510.839 254.954 510.428 255.574 510.004C257.047 508.999 258.523 507.999 260 507Z" fill="#F1FBF0"/>
<path d="M401 451C394.24 455.507 384.911 455.264 377 455V453C384.892 448.882 392.418 449.508 401 451Z" fill="#3B9710"/>
<path d="M139 689H141C139.657 693.307 138.011 697.275 136 701.312C135.484 702.361 134.969 703.409 134.438 704.488C133 707 133 707 131 708L130 705L127 707V704H129V702L133 703V699H135V696H133V691L137 693L139 689Z" fill="#393E46"/>
<path d="M767 439C764.647 439.651 762.293 440.296 759.938 440.937C759.281 441.12 758.624 441.302 757.947 441.49C750.799 443.427 743.948 444.15 736.562 444.062C735.831 444.058 735.099 444.053 734.346 444.049C732.564 444.037 730.782 444.019 729 444V443C733.767 442.26 738.536 441.529 743.307 440.809C744.929 440.562 746.551 440.313 748.172 440.061C750.504 439.698 752.838 439.346 755.172 438.996C756.256 438.824 756.256 438.824 757.363 438.649C760.817 438.14 763.68 437.764 767 439Z" fill="#B0E09A"/>
<path d="M185 541H186C186.606 548.424 184.535 554.968 182.535 562.041C181.186 566.984 180.113 572 179 577H177L176 581C175 579 175 579 175.421 577.14C175.672 576.399 175.922 575.658 176.18 574.895C176.449 574.075 176.719 573.256 176.996 572.412C177.286 571.554 177.576 570.696 177.875 569.812C179.772 564.177 181.265 558.902 182 553L183 552C183.395 550.154 183.742 548.298 184.062 546.438C184.239 545.426 184.416 544.414 184.598 543.371C184.73 542.589 184.863 541.806 185 541Z" fill="#409308"/>
<path d="M119.703 5.90235C120.541 5.90377 121.379 5.90518 122.242 5.90664C124.911 5.91223 127.581 5.92478 130.25 5.93751C132.062 5.94252 133.875 5.94709 135.688 5.95118C140.125 5.96219 144.563 5.97945 149 6.00001V7.00001C148.214 7.02506 147.427 7.05012 146.617 7.07594C143.036 7.19234 139.456 7.31486 135.875 7.43751C134.638 7.47682 133.4 7.51614 132.125 7.55665C130.327 7.61949 130.327 7.61949 128.492 7.6836C127.392 7.72026 126.293 7.75692 125.16 7.79469C122.047 7.99692 119.069 8.46067 116 9.00001C114.209 9.06306 112.417 9.08672 110.625 9.06251C109.314 9.04897 109.314 9.04897 107.977 9.03516C106.998 9.01776 106.998 9.01776 106 9.00001C107 7.00001 107 7.00001 108.816 6.3821C112.423 5.75103 116.053 5.87911 119.703 5.90235Z" fill="#12192E"/>
<path d="M960 66H962V68H964V70L967 69C968.04 72.3802 968.08 75.478 968 79C966.25 78.9375 966.25 78.9375 964 78C961.167 73.9085 959.382 71.1017 960 66Z" fill="#2C9A06"/>
<path d="M71 18L73 19C67.5 23 67.5 23 63 23V26L60 27C58.9888 27.9887 57.9902 28.9903 57 30C54.755 31.5618 52.4596 33.0259 50.1562 34.5C48.197 35.8629 46.6192 37.2562 45 39L43 38C44.2677 36.7052 45.5393 35.4143 46.8125 34.125C47.5202 33.4057 48.2279 32.6864 48.957 31.9453C52.1826 28.874 53.4339 28 58 28L59 25H61L62 22C64.3125 20.9375 64.3125 20.9375 67 20L69.1875 18.8125L71 18Z" fill="#0B1C2D"/>
<path d="M190 511H191L190 539L186 541C185.825 536.11 186.087 532.176 187.422 527.43C188.705 522.038 189.275 516.49 190 511Z" fill="#439A0B"/>
<path d="M196 560L197 563C195.75 565.188 195.75 565.188 194 567H191L190.188 570.375C189 574 189 574 186 576H183V578L180 579V577H182C182.215 576.468 182.431 575.935 182.652 575.387C184.501 572.113 187.001 569.531 189.562 566.812C190.07 566.267 190.577 565.721 191.1 565.158C194.557 561.443 194.557 561.443 196 560Z" fill="#E0F5DA"/>
<path d="M978 1461H979C979.236 1468.62 978.837 1475.59 977 1483H975L974.625 1485.44L974 1488L972 1489C974 1479.67 976 1470.33 978 1461Z" fill="#B5B4B4"/>
<path d="M174 587C175.346 589.692 174.748 590.987 174.109 593.91C173.894 594.901 173.679 595.891 173.457 596.912C173.107 598.472 173.107 598.472 172.75 600.062C172.532 601.075 172.314 602.088 172.09 603.131C170.742 609.243 169.088 615.099 167 621H166C166.699 613.857 168.302 607.028 170 600.062C170.273 598.915 170.547 597.767 170.828 596.584C172.87 588.13 172.87 588.13 174 587Z" fill="#55575C"/>
<path d="M406 116L408 117C406 120 406 120 403.375 121.5L401 123V127C397.019 128.171 393.084 129.257 389 130C394.227 124.624 399.896 120.309 406 116Z" fill="#2E890F"/>
<path d="M887 397L889 401H887L886.312 402.875C884.594 405.657 883.09 406.096 880 407H877V405L875 404L880 403L881 400V402L887 397Z" fill="#2C9A06"/>
<path d="M205 425C206.248 429.24 205.733 433.053 205.188 437.375C205.104 438.118 205.021 438.86 204.936 439.625C204.408 443.985 203.483 447.845 202 452C201.625 454.327 201.281 456.66 201 459H200C199.614 452.563 200.77 446.904 202.199 440.633C203.341 435.454 204.185 430.238 205 425Z" fill="#286612"/>
<path d="M102 10C101.408 10.1934 100.817 10.3867 100.207 10.5859C99.4168 10.8463 98.6266 11.1067 97.8125 11.375C96.9849 11.647 96.1573 11.919 95.3047 12.1992C92.9243 12.9835 92.9243 12.9835 90.4375 14.1875C86.8936 15.3688 83.7253 15.1263 80 15V17L74 18V16C74.961 15.7274 74.961 15.7274 75.9414 15.4492C79.9605 14.2812 83.8847 13.1375 87.6875 11.375C92.6329 9.32218 96.8391 8.51581 102 10Z" fill="#0B1C2D"/>
<path d="M825 425V427C815.875 429.863 815.875 429.863 811.125 428.438C807.971 427.788 805.142 428.456 802 429C805.361 425.942 807.893 425.548 812.375 425.313C813.476 425.247 814.577 425.181 815.711 425.113C818.811 425.007 821.899 424.977 825 425Z" fill="#2C9A06"/>
<path d="M954 355L955 357C954.062 359.125 954.062 359.125 953 361H950V363.188C948.621 367.067 946.337 368.102 942.91 370.18C942.28 370.45 941.649 370.721 941 371L939 370L954 355Z" fill="#CFE7D0"/>
<path d="M514 58L507 60V62C503.146 64.9198 499.739 65.4831 495 66C493.661 66.309 492.323 66.6294 491 67V69L487 68C491.774 65.525 496.483 63.1009 501.562 61.3125C505.074 60.4156 505.074 60.4156 506 58C511.449 56.7246 511.449 56.7246 514 58Z" fill="#1C6311"/>
<path d="M291 490V492H288V495C285.625 496.062 285.625 496.062 283 497L281 496L280 498C278.75 499.625 278.75 499.625 277 501C274.312 501.188 274.312 501.188 272 501C275.154 497.488 278.464 495.448 282.625 493.25C283.772 492.636 284.92 492.023 286.102 491.391C289 490 289 490 291 490Z" fill="#E1F5DA"/>
<path d="M230 331H234C232.123 337.377 230.143 343.707 228 350H227C226.82 344.766 227.048 340.938 229 336C230.105 333.211 230.105 333.211 230 331Z" fill="#17361F"/>
<path d="M269 466H274C272.595 469.396 271.006 470.934 268 473L266 475H262V472C265.333 469 265.333 469 268 469L269 466Z" fill="#2C9A06"/>
<path d="M417 449C413.864 451.653 410.911 452.81 407 454L405 455C402.651 454.392 400.315 453.729 398 453C403.939 449.041 410.081 448.753 417 449Z" fill="#F6FDF0"/>
<path d="M203 446C204.047 449.231 203.906 451.341 203.125 454.625C202.134 459.055 201.667 463.341 201.441 467.871C200.91 470.433 199.984 471.355 198 473C198.791 463.985 200.132 454.605 203 446Z" fill="#49B004"/>
<path d="M972 97C977.097 102.901 979.264 112.172 979.25 119.875L979 123H978L977.25 119.875C975.943 114.59 974.365 109.387 972.805 104.172C972 101 972 101 972 97Z" fill="#2C9A06"/>
<path d="M974 95H976C978.83 104.843 980.638 113.652 980 124H979C978.939 123.374 978.879 122.747 978.816 122.102C978.733 121.284 978.649 120.467 978.562 119.625C978.481 118.813 978.4 118.001 978.316 117.164C978.109 114.957 978.109 114.957 977 113C976.634 110.901 976.306 108.796 976 106.688C975.428 102.766 974.815 98.8792 974 95Z" fill="#2C9A06"/>
<path d="M481 74C478.277 75.4899 475.545 76.9649 472.812 78.4375C471.659 79.0688 471.659 79.0688 470.482 79.7129C466.685 81.7501 463.354 83.5201 459 84C461.879 80.8772 464.704 78.8266 468.438 76.8125C469.364 76.3033 470.291 75.7941 471.246 75.2695C477.642 72.321 477.642 72.321 481 74Z" fill="#21710F"/>
<path d="M184 568H187C186.427 571.869 184.61 574.152 182 577H180L179.125 579.188C178.083 581.792 177.042 584.396 176 587H175C174.687 580.122 174.687 580.122 177 577C179.125 576.25 179.125 576.25 181 576L181.375 574.25C182.006 571.977 182.889 570.075 184 568Z" fill="#83CD37"/>
<path d="M926 1550L927 1552H925L926 1556L922.75 1556.25C918.635 1557.07 917.715 1557.99 915 1561H912L911 1563L909 1561C909.976 1560.37 910.952 1559.75 911.957 1559.1C913.242 1558.28 914.527 1557.45 915.812 1556.62C916.455 1556.21 917.098 1555.8 917.76 1555.38C920.52 1553.6 923.271 1551.82 926 1550Z" fill="#919295"/>
<path d="M945.312 368.312L947 369C944.521 371.656 942.396 373.642 939 375H937C935.638 375.961 934.301 376.959 933 378L931 377C941.356 367.778 941.356 367.778 945.312 368.312Z" fill="#EAF6E9"/>
<path d="M901 1567C897.929 1570.97 893.531 1571.61 888.766 1572.34C886.847 1572.59 884.924 1572.8 883 1573V1571C885.622 1570.14 888.247 1569.28 890.875 1568.44C891.621 1568.19 892.368 1567.94 893.137 1567.69C898.773 1565.89 898.773 1565.89 901 1567Z" fill="#BBBCBE"/>
<path d="M273 499C270.484 501.86 267.661 503.415 264.312 505.188C263.319 505.717 262.325 506.247 261.301 506.793C260.542 507.191 259.782 507.59 259 508L260 504L264 503V501C267.135 499.142 269.375 498.799 273 499Z" fill="#399818"/>
<path d="M914 25C917.377 25.5373 920.697 26.1106 924 27V30L925.875 30.3125C928 31 928 31 930 34C923.751 32.2571 919.061 30.0919 914 26V25Z" fill="#2C9A06"/>
<path d="M302 214C302 217 302 217 301 220H299L298.188 222.25C297.058 224.866 295.791 226.802 294 229L291 228C292.645 225.853 294.291 223.708 295.938 221.562C296.406 220.951 296.875 220.339 297.357 219.709C300.887 215.113 300.887 215.113 302 214Z" fill="#34930C"/>
<path d="M896 15C900.402 15.667 904.009 17.081 908 19L909 21C910.641 22.0409 912.307 23.045 914 24C911 24 911 24 908.75 22.625C905.592 20.7588 902.541 19.9027 899 19V17L896 16V15Z" fill="#2C9A06"/>
<path d="M875 8C882.486 9.08166 889.092 10.913 896 14V15C891.131 14.4038 886.672 13.4302 882 12V10H876L875 8Z" fill="#2C9A06"/>
<path d="M120 725L122 726C120.625 728.5 120.625 728.5 119 731H117L116.125 733.938C115 737 115 737 113 738L114 734H112V731L114.875 730.25C118.087 729.314 118.087 729.314 119.375 726.875L120 725Z" fill="#30373F"/>
<path d="M313 479C310.544 480.171 308.085 481.337 305.625 482.5C304.926 482.834 304.228 483.168 303.508 483.512C298.227 486 298.227 486 296 486C297 483 297 483 298.812 481.813C301 481 301 481 305 481V479C308.287 478.2 309.71 477.903 313 479Z" fill="#449B1D"/>
<path d="M107 746V749C105 750.688 105 750.688 103 752L102 750H100L99 753H97L98 748C100.982 747.227 103.976 746.588 107 746Z" fill="#212833"/>
<path d="M180 562C181.032 565.614 180.812 568.047 180.062 571.75C179.868 572.735 179.673 573.72 179.473 574.734C179.317 575.482 179.161 576.23 179 577H177L176 581C174.728 578.456 175.179 577.755 175.996 575.086C176.339 573.945 176.339 573.945 176.689 572.781C176.936 571.987 177.183 571.193 177.437 570.375C177.68 569.573 177.923 568.771 178.174 567.945C178.776 565.962 179.387 563.981 180 562Z" fill="#26680D"/>
<path d="M220 368C221 370 221 370 220.004 373.477C219.531 374.862 219.05 376.245 218.562 377.625C218.32 378.331 218.077 379.038 217.826 379.766C217.224 381.513 216.613 383.257 216 385H215C215.113 383.02 215.241 381.041 215.375 379.062C215.445 377.96 215.514 376.858 215.586 375.723C215.723 374.824 215.859 373.926 216 373L218 372C219.134 369.983 219.134 369.983 220 368Z" fill="#1D4C1B"/>
<path d="M13 73C14 75 14 75 13.1094 77.7852C12.6608 78.8667 12.2122 79.9482 11.75 81.0625C11.3117 82.1466 10.8734 83.2307 10.4219 84.3477C9 87 9 87 6 88L7 83H9V78H11V74L13 73Z" fill="#8C9198"/>
<path d="M18 821H20V823L24 824L14 829C16 824 16 824 18 821Z" fill="#192238"/>
<path d="M250 295L251 297C250.293 298.734 250.293 298.734 249.188 300.75C247.798 303.362 246.821 305.58 245.938 308.438L245 311L242 312C243.255 308.757 244.607 305.561 246 302.375C246.33 301.62 246.66 300.864 247 300.086C248 298 248 298 250 295Z" fill="#29770F"/>
<path d="M862 7C875.633 7.77904 875.633 7.77904 882 10V11C880.521 11.0269 879.042 11.0463 877.562 11.0625C876.327 11.0799 876.327 11.0799 875.066 11.0977C873 11 873 11 872 10C869.68 9.71898 867.361 9.55217 865.031 9.37891C864.361 9.25387 863.691 9.12883 863 9L862 7Z" fill="#58A044"/>
<path d="M260 507L262 508C261.625 509.938 261.625 509.938 261 512C258.509 513.245 257.589 512.777 255 512V514H253C254.444 510.193 256.35 508.734 260 507Z" fill="#DEF2D9"/>
<path d="M643 15C637.283 17.4503 633.21 18.3327 627 18C629.76 16.1602 631.297 15.5168 634.438 14.8125C635.58 14.5437 635.58 14.5437 636.746 14.2695C639.13 13.9845 640.731 14.2713 643 15Z" fill="#1E6715"/>
<path d="M139 689H141C140.25 691.938 140.25 691.938 139 695C136.819 695.954 135.358 696 133 696V691L137 693L139 689Z" fill="#0A1321"/>
<path d="M1 87L6 88V92H4L3 97H2L1 87Z" fill="#DADADA"/>
<path d="M100 752L103 753C100.685 756.721 98.7142 759.612 95 762V757L99 756L100 752Z" fill="#292E37"/>
<path d="M126 713L128 715L123 724C122.172 720.688 121.907 718.34 122 715H125L126 713Z" fill="#2E353F"/>
<path d="M154 647L158 648L154 659C152.841 654.365 153.3 651.667 154 647Z" fill="#32373F"/>
<path d="M223 359H224C224.167 363.921 224.248 367.503 222 372H220C220.479 367.286 220.968 363.334 223 359Z" fill="#43A106"/>
<path d="M974 331C974 334 974 334 971.625 336.625C969 339 969 339 967 340L966 335L968.875 334.125C972.052 333.232 972.052 333.232 974 331Z" fill="#388F32"/>
<path d="M261 274C262 276 262 276 261.223 278.602C260.84 279.599 260.457 280.597 260.062 281.625C259.682 282.628 259.302 283.631 258.91 284.664C258.61 285.435 258.309 286.206 258 287H255L256 283H258L258.375 280.75C258.955 278.199 259.737 276.273 261 274Z" fill="#32860E"/>
<path d="M369 145L370 147C367.792 150.371 365.607 152.197 362 154H359L369 145Z" fill="#33960C"/>
<path d="M79 18L77 22L69 21C74.625 16.6875 74.625 16.6875 79 18Z" fill="#0B1C2D"/>
<path d="M115.75 5.9375C116.549 5.94652 117.348 5.95555 118.172 5.96484C118.775 5.97645 119.378 5.98805 120 6V7C115.073 8.97095 111.22 9.17999 106 9C107 7 107 7 108.766 6.37891C111.142 5.976 113.342 5.90209 115.75 5.9375Z" fill="#4C4E59"/>
<path d="M960 69L963 70V73L966 74V79C962.517 75.9811 961.208 73.4309 960 69Z" fill="#2C9A06"/>
<path d="M254 287C254 290 254 290 253 293H251L250 296C247 292.125 247 292.125 247 291H252L254 287Z" fill="#143A1C"/>
<path d="M87 12V15H80V17L74 18V16C74.7103 15.795 75.4205 15.5901 76.1523 15.3789C77.0714 15.1095 77.9905 14.8401 78.9375 14.5625C80.3123 14.1622 80.3123 14.1622 81.7148 13.7539C84.1046 12.9655 84.5534 12 87 12Z" fill="#0B1C2D"/>
<path d="M179 576L181 577L179.125 579.75C177.556 582.149 176.196 584.41 175 587C174.822 583.094 174.793 580.311 177 577L179 576Z" fill="#779745"/>
<path d="M966 79H968C971.101 84.4577 971.101 84.4577 970.59 87.2031C970.395 87.7961 970.201 88.3891 970 89C969.328 87.7109 968.663 86.4186 968 85.125C967.629 84.4057 967.257 83.6864 966.875 82.9453C966 81 966 81 966 79Z" fill="#2C9A06"/>
<path d="M145 678C145 681.867 143.581 684.509 142 688L140 687C142.75 680.25 142.75 680.25 145 678Z" fill="#3D4246"/>
<path d="M219 538L222 539L221 542L215 543L219 538Z" fill="#E6F5E3"/>
<path d="M146 668L148 669L146 675H144V669L146 668Z" fill="#010716"/>
<path d="M413.188 448.875L417 449C415.438 450.563 415.438 450.563 413 452C409.25 451.688 409.25 451.688 406 451C409.089 448.941 409.709 448.761 413.188 448.875Z" fill="#C8E9BF"/>
<path d="M392 450L401 451C397.565 453.29 396.015 453.178 392 453V450Z" fill="#2C9A06"/>
<path d="M926 1550L927 1552H925L926 1556H922C922.312 1554.12 922.312 1554.12 923 1552L926 1550Z" fill="#7C7D7F"/>
<path d="M28 817H34C32.7103 818.376 31.3731 819.708 30 821H28V817Z" fill="#2A374A"/>
<path d="M179 579C180 581 180 581 179.188 583.562C178 586 178 586 176 587C176.547 583.625 177.055 581.918 179 579Z" fill="#EAEEE6"/>
<path d="M254 289C255.333 291.667 254.671 293.167 254 296L251 297V293H253L254 289Z" fill="#40A803"/>
<path d="M969 1495L971 1497C970.625 1499.12 970.625 1499.12 970 1501L968 1500L967 1502C967.576 1499.61 968.222 1497.33 969 1495Z" fill="#999B9A"/>
<path d="M65 790L68 792L63 796V792H65V790Z" fill="#2A2E3B"/>
<path d="M209 545L212 546L206 551V548H208L209 545Z" fill="#67A940"/>
<path d="M270 501L272 502L270 505C267.375 505.188 267.375 505.188 265 505C266.634 503.292 267.869 502.065 270 501Z" fill="#E0F5D7"/>
<path d="M16 824L20 826L14 829L16 824Z" fill="#2D3445"/>
<path d="M141 689C140.398 691.02 139.727 693.021 139 695L137 696C138.043 689 138.043 689 141 689Z" fill="#41474F"/>
<path d="M268 499H273C270.948 501.248 269.993 502.002 267 503L268 499Z" fill="#4CA62D"/>
<path d="M241 308L243 310L241 317C240.019 314.055 239.839 312.065 240 309L241 308Z" fill="#163F1C"/>
<path d="M958 68C960.5 70.1742 961.436 71.7305 962 75L959 74L958 68Z" fill="#238017"/>
<path d="M953 61L958 66L955 67L953 61Z" fill="#2B8221"/>
<path d="M934 37H938L939 42L934 37Z" fill="#2C9A06"/>
<path d="M412 112L414 113L412 116L408 115L412 112Z" fill="#2A8510"/>
<path d="M5 88L6 92H4L3 94V89L5 88Z" fill="#ABB2B6"/>
<path d="M963 1508L965 1512L961 1513L963 1508Z" fill="#8D8F8D"/>
<path d="M979 326L980 330L976 331C977.875 327.125 977.875 327.125 979 326Z" fill="#CCDECF"/>
<path d="M314 199C315 201 315 201 314 204H311C312.875 200.125 312.875 200.125 314 199Z" fill="#328C08"/>
<path d="M44 32L48 34L44 37V32Z" fill="#0B1C2D"/>
<path d="M277 248L278 252L275 253L277 248Z" fill="#31870D"/>
<path d="M39 37H44L42 40H40L39 37Z" fill="#0B1C2D"/>
</g>
<defs>
<clipPath id="clip0_2_2">
<rect width="980" height="1584" rx="130" fill="white"/>
</clipPath>
</defs>
</svg>
